<svg id="logo" viewBox="0 0 348 88" xmlns="http://www.w3.org/2000/svg">
  <path id="text" d="M61.43 12.61H34.45V81.72H26.98V12.61H0V6H61.43V12.61ZM123.64 75.11V81.72H72.77V6H122.68V12.61H80.23V39.91H117.24V46.2H80.23V75.1H123.64V75.11ZM145.22 19.87V81.73H137.75V6H143.51L193.63 69.03V6.11H201.1V81.72H194.59L145.21 19.86L145.22 19.87ZM220.14 81.73V6.11H227.61V50.05L269.3 6H277.51L246.58 39.27L279.11 81.72H270.9L241.89 43.65L227.6 58.47V81.72H220.13L220.14 81.73Z"  fill="currentColor"/>
  <path id="symbol" d="M326.74 65.85C326.09 66.5 325.52 67.22 325.04 67.98L303.53 54.92C304.09 53.5 304.42 51.94 304.42 50.32C304.42 48.7 304.1 47.15 303.53 45.72L325.04 32.75C327.25 36.22 331.12 38.54 335.53 38.54C342.39 38.54 347.98 32.95 347.98 26.08C347.98 19.21 342.39 13.62 335.53 13.62C328.67 13.62 323.08 19.21 323.08 26.08C323.08 27.64 323.38 29.14 323.91 30.51L302.37 43.5C300.15 40.11 296.32 37.86 291.97 37.86C285.11 37.86 279.52 43.44 279.52 50.32C279.52 57.2 285.11 62.78 291.97 62.78C296.32 62.78 300.15 60.53 302.37 57.14L323.91 70.22C323.38 71.62 323.08 73.12 323.08 74.67C323.08 78 324.37 81.13 326.73 83.48C329.15 85.91 332.34 87.12 335.53 87.12C338.72 87.12 341.91 85.9 344.33 83.48C346.68 81.13 347.98 78 347.98 74.67C347.98 71.34 346.69 68.22 344.33 65.86C339.48 61 331.59 61 326.73 65.86L326.74 65.85ZM335.54 16.11C341.03 16.11 345.5 20.58 345.5 26.07C345.5 31.56 341.03 36.03 335.54 36.03C330.05 36.03 325.59 31.56 325.59 26.07C325.59 20.58 330.06 16.11 335.54 16.11ZM291.98 60.27C286.49 60.27 282.03 55.8 282.03 50.31C282.03 44.82 286.5 40.34 291.98 40.34C297.46 40.34 301.94 44.81 301.94 50.31C301.94 55.81 297.47 60.27 291.98 60.27ZM342.58 81.7C338.7 85.59 332.38 85.59 328.5 81.7C326.62 79.81 325.58 77.31 325.58 74.65C325.58 71.99 326.61 69.49 328.5 67.61C330.44 65.66 332.99 64.7 335.54 64.7C338.09 64.7 340.64 65.67 342.58 67.61C344.46 69.49 345.5 72 345.5 74.65C345.5 77.3 344.46 79.81 342.58 81.7Z" fill="currentColor"/>
</svg>
